<svg width="275" height="40" viewBox="0 0 275 40" fill="none" xmlns="http://www.w3.org/2000/svg">
<path d="M244 4C253.159 4 260.351 3.31912 264.5 4.5C271.037 6.36086 271.5 10.8291 271.5 14.5C271.5 20.5 266.657 20.7131 260.534 21.9846M244 23C244.799 23 246.136 22.973 247 22.9488M247 22.9488V38.9846M247 22.9488C251.322 22.8274 256.242 22.8758 260.534 21.9846M260.534 21.9846C264.816 28.6235 271 34.9846 271 38.9846" stroke="#566D7E" stroke-width="6"/>
<path d="M26.5 19C26.5 24.5947 26.527 31.3533 17.6792 34.469C13.9007 35.7997 8.19355 36.1154 0.999998 35.966" stroke="#566D7E" stroke-width="6"/>
<path d="M4 21.034C4 15.4281 3.98206 8.62202 13 5.50001C16.8512 4.16671 22.1681 3.85037 29.5 4" stroke="#566D7E" stroke-width="6"/>
<path d="M41.5 4H70.5M56 14.5V38.5" stroke="#566D7E" stroke-width="6"/>
<path d="M100 35.5C116 35.5 114.5 4 100 4M100 35.5C116 35.5 114.5 4 100 4" stroke="#566D7E" stroke-width="6"/>
<path d="M93.5 4.5C77.5 4.5 79 36 93.5 36M93.5 4.5C77.5 4.5 79 36 93.5 36" stroke="#566D7E" stroke-width="6"/>
<path d="M149.52 4C133.393 4 128.394 11.8123 128.02 19.5C127.606 28.0195 133.488 36.5 149.52 36.5" stroke="#566D7E" stroke-width="6"/>
<path d="M164.5 1.5V25.5V38.5" stroke="#566D7E" stroke-width="6"/>
<path d="M165 28L189.5 3M180 25.5C184 30 190.5 35 190.5 39" stroke="#566D7E" stroke-width="6"/>
<path d="M205 3.5H232.5M205 19.5H229M205 36.5H232.5" stroke="#566D7E" stroke-width="6"/>
</svg>
