<svg width="98" height="188" viewBox="0 0 98 188" fill="none" xmlns="http://www.w3.org/2000/svg">
<path d="M48.1118 18.1963L39.1118 26.1963V52.6963M54.6118 80.6963L64.1118 71.6963V50.6963L65.6118 46.6963M78.1118 48.6963L73.1118 53.6963V72.6963L69.1118 77.1963M54.6118 90.6963H64.1118L71.6118 83.1963H80.6118M71.1118 102.696H73.1118L83.1118 112.196H93.6118M44.1118 109.696H52.1118M53.1118 109.696H52.1118M52.1118 102.696V109.696M53.1118 105.196H55.6118L62.1118 111.696H73.1118L77.6118 116.196M44.1118 105.196H41.1118L28.1118 117.696H19.1118M48.6118 125.196V138.196M48.6118 146.696V141.196M48.6118 138.196C49.4118 137.796 53.6118 133.363 55.6118 131.196H60.6118M48.6118 138.196V141.196M48.6118 141.196L39.6118 131.196V124.696" stroke="#566D7E" stroke-width="2"/>
<path d="M48.6118 7.1963V63.6963M48.6118 31.1963L57.1118 39.1963L57.6118 56.1963" stroke="#566D7E" stroke-width="2"/>
<path d="M41.1118 95.6963H14.6118M41.6118 90.6963H33.6118L21.1118 78.1963L17.1118 77.6963M41.6118 80.1963L32.1118 71.1963V54.6963L28.1118 50.1963" stroke="#566D7E" stroke-width="2"/>
<path d="M48.1118 79.1963V109.196" stroke="#566D7E" stroke-width="9"/>
<path d="M51.7179 148.228L49.7009 148.549L49.6141 150.59C49.3618 156.519 49.3305 161.811 49.3384 166.396C49.3402 167.476 49.3442 168.512 49.348 169.506C49.3604 172.759 49.371 175.557 49.3004 177.935C49.2064 181.1 48.9701 183.177 48.5494 184.416C48.452 184.702 48.3611 184.892 48.29 185.016C48.1801 184.769 48.0479 184.38 47.9266 183.797C47.5459 181.967 47.4549 179.193 47.5484 175.637C47.623 172.802 47.808 169.627 48.0049 166.248C48.052 165.44 48.0998 164.62 48.1468 163.791C48.3893 159.521 48.6118 155.023 48.6118 150.696V148.196H46.1118C29.8629 148.196 18.7681 141.792 11.8312 132.115C4.81873 122.333 1.87807 108.947 2.60848 94.8254L2.61182 94.7609V94.6963C2.61182 75.1449 13.4006 52.0303 25.0395 33.5566C30.8235 24.376 36.7396 16.4633 41.467 10.8668C43.8347 8.0637 45.8751 5.8763 47.4294 4.41089C48.1357 3.74494 48.7036 3.26431 49.1292 2.9498C49.2222 3.0371 49.3216 3.13227 49.4273 3.23555C50.6429 4.42313 52.4504 6.43705 54.6758 9.16087C59.1098 14.5879 65.05 22.645 70.9961 32.0906C76.9439 41.5389 82.8667 52.3277 87.2958 63.2236C91.7355 74.1455 94.6118 85.0243 94.6118 94.6963C94.6118 95.4993 94.6142 96.3052 94.6166 97.1132C94.6466 107.238 94.6777 117.689 90.0157 126.713C85.1254 136.178 74.7337 144.555 51.7179 148.228Z" stroke="#566D7E" stroke-width="5"/>
<path d="M36.1118 104.696C36.1118 106.818 34.1889 108.696 31.6118 108.696C29.0347 108.696 27.1118 106.818 27.1118 104.696C27.1118 102.575 29.0347 100.696 31.6118 100.696C34.1889 100.696 36.1118 102.575 36.1118 104.696Z" stroke="#566D7E" stroke-width="2"/>
<path d="M41.1118 121.696C41.1118 123.818 39.1889 125.696 36.6118 125.696C34.0347 125.696 32.1118 123.818 32.1118 121.696C32.1118 119.575 34.0347 117.696 36.6118 117.696C39.1889 117.696 41.1118 119.575 41.1118 121.696Z" stroke="#566D7E" stroke-width="2"/>
<path d="M53.1118 120.696C53.1118 122.818 51.1889 124.696 48.6118 124.696C46.0347 124.696 44.1118 122.818 44.1118 120.696C44.1118 118.575 46.0347 116.696 48.6118 116.696C51.1889 116.696 53.1118 118.575 53.1118 120.696Z" stroke="#566D7E" stroke-width="2"/>
<path d="M70.1118 130.696C70.1118 132.818 68.1889 134.696 65.6118 134.696C63.0347 134.696 61.1118 132.818 61.1118 130.696C61.1118 128.575 63.0347 126.696 65.6118 126.696C68.1889 126.696 70.1118 128.575 70.1118 130.696Z" stroke="#566D7E" stroke-width="2"/>
<circle cx="78.6118" cy="117.196" r="2.5" stroke="#566D7E" stroke-width="2"/>
<circle cx="85.6118" cy="96.1963" r="2.5" stroke="#566D7E" stroke-width="2"/>
<circle cx="83.6118" cy="83.1963" r="2.5" stroke="#566D7E" stroke-width="2"/>
<circle cx="67.6118" cy="46.1963" r="2.5" stroke="#566D7E" stroke-width="2"/>
<circle cx="27.6118" cy="50.1963" r="2.5" stroke="#566D7E" stroke-width="2"/>
<circle cx="14.6118" cy="77.1963" r="2.5" stroke="#566D7E" stroke-width="2"/>
<circle cx="11.6118" cy="95.1963" r="2.5" stroke="#566D7E" stroke-width="2"/>
<circle cx="17.6118" cy="118.196" r="2.5" stroke="#566D7E" stroke-width="2"/>
<path d="M70.1118 102.696C70.1118 104.818 68.1889 106.696 65.6118 106.696C63.0347 106.696 61.1118 104.818 61.1118 102.696C61.1118 100.575 63.0347 98.6963 65.6118 98.6963C68.1889 98.6963 70.1118 100.575 70.1118 102.696Z" stroke="#566D7E" stroke-width="2"/>
<path d="M62.1118 60.6963C62.1118 62.8179 60.1889 64.6963 57.6118 64.6963C55.0347 64.6963 53.1118 62.8179 53.1118 60.6963C53.1118 58.5747 55.0347 56.6963 57.6118 56.6963C60.1889 56.6963 62.1118 58.5747 62.1118 60.6963Z" stroke="#566D7E" stroke-width="2"/>
<path d="M70.1118 80.6963C70.1118 82.8179 68.1889 84.6963 65.6118 84.6963C63.0347 84.6963 61.1118 82.8179 61.1118 80.6963C61.1118 78.5747 63.0347 76.6963 65.6118 76.6963C68.1889 76.6963 70.1118 78.5747 70.1118 80.6963Z" stroke="#566D7E" stroke-width="2"/>
<path d="M44.1118 56.6963C44.1118 58.8179 42.1889 60.6963 39.6118 60.6963C37.0347 60.6963 35.1118 58.8179 35.1118 56.6963C35.1118 54.5747 37.0347 52.6963 39.6118 52.6963C42.1889 52.6963 44.1118 54.5747 44.1118 56.6963Z" stroke="#566D7E" stroke-width="2"/>
<path d="M36.1118 79.6963C36.1118 81.8179 34.1889 83.6963 31.6118 83.6963C29.0347 83.6963 27.1118 81.8179 27.1118 79.6963C27.1118 77.5747 29.0347 75.6963 31.6118 75.6963C34.1889 75.6963 36.1118 77.5747 36.1118 79.6963Z" stroke="#566D7E" stroke-width="2"/>
<path d="M53.1118 68.6963C53.1118 70.8179 51.1889 72.6963 48.6118 72.6963C46.0347 72.6963 44.1118 70.8179 44.1118 68.6963C44.1118 66.5747 46.0347 64.6963 48.6118 64.6963C51.1889 64.6963 53.1118 66.5747 53.1118 68.6963Z" stroke="#566D7E" stroke-width="2"/>
<path d="M10.6118 65.1963H17.6118L28.6118 76.1963" stroke="#566D7E" stroke-width="2"/>
<path d="M4.11182 115.696L13.1118 109.696" stroke="#566D7E" stroke-width="2"/>
<path d="M12.6118 109.696L29.1118 108.696" stroke="#566D7E" stroke-width="2"/>
<path d="M50.6118 100.696H55.1118M41.1118 100.696H45.6118M41.1118 95.6963H45.6118M41.1118 90.6963H45.6118M41.1118 85.6963H45.6118M41.1118 80.6963H45.6118M50.6118 80.6963H55.1118M50.6118 85.6963H55.1118M50.6118 90.6963H55.1118M44.1118 78.6963H48.6118M47.6118 78.6963H52.1118M50.6118 95.6963H55.1118" stroke="#566D7E" stroke-width="4"/>
<path d="M55.1118 95.6963H83.1118" stroke="#566D7E" stroke-width="2"/>
</svg>
